<svg id="Capa_1" enable-background="new 0 0 512 512" height="512" viewBox="0 0 512 512" width="512" xmlns="http://www.w3.org/2000/svg" xmlns:xlink="http://www.w3.org/1999/xlink"><linearGradient id="SVGID_1_" gradientUnits="userSpaceOnUse" x1="375.359" x2="123.36" y1="660.499" y2="32.501"><stop offset=".0023" stop-color="#ff9494"/><stop offset=".992" stop-color="#ffe8dc" stop-opacity="0"/></linearGradient><linearGradient id="SVGID_2_" gradientUnits="userSpaceOnUse" x1="256" x2="256" y1="455.5" y2="35.5"><stop offset="0" stop-color="#ff4d4d" stop-opacity=".4"/><stop offset="1" stop-color="#ff4d4d" stop-opacity="0"/></linearGradient><g><path d="m419.843 204.806c1.055-7.758 1.57-15.687 1.509-23.748-.692-90.025-74.256-163.486-164.281-164.057-91.815-.581-166.428 73.673-166.428 165.354 0 7.615.516 15.109 1.513 22.45 4.043 29.747-9.887 59.143-35.212 75.263-35.611 22.668-56.944 51.54-56.944 82.98 0 72.876 114.615 131.954 256 131.954s256-59.078 256-131.954c0-31.44-21.333-60.312-56.946-82.98-25.325-16.12-39.254-45.516-35.211-75.262z" fill="url(#SVGID_1_)"/><g><g><g><path d="m386.443 145.09h-21.522v-66.913h21.522c3.803 0 6.885 3.083 6.885 6.885v53.143c0 3.802-3.082 6.885-6.885 6.885z" fill="#6c6cff"/><path d="m122.407 213.943h24.672v-135.766h-24.672c-3.803 0-3.735 3.083-3.735 6.885v121.995c0 3.803-.068 6.886 3.735 6.886z" fill="#6c6cff"/><path d="m351.888 455.5h-191.775c-12.208 0-22.105-9.897-22.105-22.105v-375.79c0-12.208 9.897-22.105 22.105-22.105h191.775c12.208 0 22.105 9.897 22.105 22.105v375.789c0 12.209-9.897 22.106-22.105 22.106z" fill="#ff9d33"/><path d="m138.012 87.622h235.977v315.756h-235.977z" fill="#6c6cff"/><path d="m373.988 87.622v120.047c-10.752-.357-20.58-4.378-28.298-10.826-8.106 6.773-18.532 10.857-29.893 10.857s-21.787-4.085-29.904-10.857c-8.105 6.772-18.532 10.857-29.893 10.857s-21.788-4.085-29.893-10.857c-8.117 6.773-18.543 10.857-29.904 10.857s-21.787-4.085-29.893-10.857c-7.718 6.447-17.546 10.469-28.298 10.826v-120.047z" fill="#4d4dff"/><g fill="#ff4d4d"><path d="m342.996 250.108c-1.024 0-2.059-.314-2.948-.965l-84.048-61.499-84.048 61.5c-2.228 1.63-5.356 1.145-6.987-1.083-1.631-2.229-1.145-5.356 1.083-6.987l87-63.66c1.758-1.287 4.146-1.287 5.904 0l87 63.66c2.229 1.631 2.714 4.759 1.083 6.987-.979 1.338-2.499 2.047-4.039 2.047z"/><path d="m276.26 66.5h-40.52c-2.762 0-5-2.239-5-5s2.238-5 5-5h40.52c2.762 0 5 2.239 5 5s-2.239 5-5 5z"/><path d="m235.667 422.5v12.667c0 2.761 2.239 5 5 5h30.667c2.761 0 5-2.239 5-5v-12.667c0-2.761-2.239-5-5-5h-30.667c-2.762 0-5 2.238-5 5z"/><path d="m335.01 433.833h-16.52c-2.762 0-5-2.239-5-5s2.238-5 5-5h16.52c2.762 0 5 2.239 5 5s-2.239 5-5 5z"/><path d="m193.51 433.833h-16.52c-2.762 0-5-2.239-5-5s2.238-5 5-5h16.52c2.762 0 5 2.239 5 5s-2.239 5-5 5z"/></g><g><g><g><g><path d="m190.329 378.307h-21c-2.762 0-5-2.239-5-5s2.238-5 5-5h21c2.762 0 5 2.239 5 5s-2.238 5-5 5z" fill="#4d4dff"/></g></g></g><g><g><g><path d="m342.671 378.307h-21c-2.762 0-5-2.239-5-5s2.238-5 5-5h21c2.762 0 5 2.239 5 5s-2.239 5-5 5z" fill="#4d4dff"/></g></g></g></g></g><path d="m351.888 455.5h-191.775c-12.208 0-22.105-9.897-22.105-22.105v-375.79c0-12.208 9.897-22.105 22.105-22.105h191.775c12.208 0 22.105 9.897 22.105 22.105v375.789c0 12.209-9.897 22.106-22.105 22.106z" fill="url(#SVGID_2_)"/><g><path d="m166.304 137.267h-59.797l31.5-49.64h47.197z" fill="#ffc599"/><path d="m226.102 137.267h-59.798l18.9-49.64h47.198z" fill="#ff4d4d"/><path d="m285.898 137.267h-59.796l6.3-49.64h47.197z" fill="#ffc599"/><path d="m345.696 137.267h-59.798l-6.299-49.64h47.197z" fill="#ff4d4d"/><path d="m405.493 137.267h-59.797l-18.9-49.64h47.197z" fill="#ffc599"/><path d="m136.406 190.9c-16.513 0-29.899-13.386-29.899-29.898v-23.735h59.797v23.735c0 16.512-13.386 29.898-29.898 29.898z" fill="#ffd6bb"/><path d="m196.203 190.9c-16.512 0-29.898-13.386-29.898-29.898v-23.735h59.797v23.735c0 16.512-13.387 29.898-29.899 29.898z" fill="#ff6c6c"/><path d="m256 190.9c-16.512 0-29.898-13.386-29.898-29.898v-23.735h59.797v23.735c-.001 16.512-13.386 29.898-29.899 29.898z" fill="#ffd6bb"/><path d="m315.797 190.9c-16.512 0-29.899-13.386-29.899-29.898v-23.735h59.797v23.735c.001 16.512-13.385 29.898-29.898 29.898z" fill="#ff6c6c"/><path d="m375.594 190.9c-16.513 0-29.899-13.386-29.899-29.898v-23.735h59.797v23.735c.001 16.512-13.385 29.898-29.898 29.898z" fill="#ffd6bb"/></g><path d="m380.919 349.971h-249.838c-5.523 0-10-4.477-10-10v-84.864c0-5.523 4.477-10 10-10h249.838c5.523 0 10 4.477 10 10v84.864c0 5.523-4.477 10-10 10z" fill="#ff4d4d"/><g><g><g><path d="m172.826 319.891h-12.454c-6.066 0-11-4.935-11-11v-25.651c0-6.065 4.934-11 11-11h12.454c6.065 0 11 4.935 11 11 0 2.762-2.238 5-5 5s-5-2.238-5-5c0-.552-.448-1-1-1h-12.454c-.552 0-1 .448-1 1v25.651c0 .552.448 1 1 1h12.454c.552 0 1-.448 1-1 0-2.762 2.238-5 5-5s5 2.238 5 5c0 6.065-4.934 11-11 11z" fill="#fff"/></g></g><g><g><path d="m223.526 319.891h-18.454c-6.065 0-11-4.935-11-11v-31.651c0-2.762 2.238-5 5-5s5 2.238 5 5v31.651c0 .552.448 1 1 1h18.454c2.762 0 5 2.238 5 5s-2.238 5-5 5z" fill="#fff"/></g></g><g><g><path d="m262.227 319.891h-12.453c-6.065 0-11-4.935-11-11v-25.651c0-6.065 4.935-11 11-11h12.453c6.065 0 11 4.935 11 11v25.651c0 6.065-4.935 11-11 11zm-12.454-37.652c-.552 0-1 .448-1 1v25.651c0 .552.448 1 1 1h12.453c.552 0 1-.448 1-1v-25.651c0-.552-.448-1-1-1z" fill="#fff"/></g></g><g><g><path d="m306.928 319.891h-12.454c-6.065 0-11-4.935-11-11 0-2.762 2.238-5 5-5s5 2.238 5 5c0 .552.448 1 1 1h12.454c.552 0 1-.448 1-1v-7.038c0-.345-.161-.577-.297-.711-.134-.133-.364-.289-.703-.289-.004 0-.008 0-.013 0l-12.314.143c-2.939-.008-5.755-1.095-7.86-3.178-2.106-2.082-3.267-4.86-3.267-7.822v-6.756c0-6.065 4.935-11 11-11h12.454c6.065 0 11 4.935 11 11 0 2.762-2.238 5-5 5s-5-2.238-5-5c0-.552-.448-1-1-1h-12.454c-.552 0-1 .448-1 1v6.756c0 .345.161.577.297.711.134.133.364.289.703.289h.013l12.315-.143c2.944-.017 5.755 1.095 7.86 3.178 2.107 2.082 3.267 4.86 3.267 7.822v7.038c-.001 6.065-4.936 11-11.001 11z" fill="#fff"/></g></g></g><g><g><path d="m357.628 319.891h-18.454c-6.065 0-11-4.935-11-11v-25.651c0-6.065 4.935-11 11-11h18.454c2.762 0 5 2.238 5 5s-2.238 5-5 5h-18.454c-.552 0-1 .448-1 1v25.651c0 .552.448 1 1 1h18.454c2.762 0 5 2.238 5 5s-2.238 5-5 5z" fill="#fff"/></g></g><path d="m353.801 301.064h-20.627c-2.762 0-5-2.238-5-5s2.238-5 5-5h20.627c2.762 0 5 2.238 5 5s-2.239 5-5 5z" fill="#fff"/></g><g><path d="m439.388 223.278c-1.279 0-2.56-.488-3.535-1.465-1.953-1.952-1.953-5.118 0-7.07l10-10c1.951-1.953 5.119-1.953 7.07 0 1.953 1.952 1.953 5.118 0 7.07l-10 10c-.976.977-2.256 1.465-3.535 1.465z" fill="#ff6c6c"/><path d="m82.612 300.073c-1.279 0-2.56-.488-3.535-1.465-1.953-1.952-1.953-5.118 0-7.07l10-10c1.951-1.953 5.119-1.953 7.07 0 1.953 1.952 1.953 5.118 0 7.07l-10 10c-.975.977-2.255 1.465-3.535 1.465z" fill="#ff6c6c"/><g><path d="m82.612 210.063c-1.279 0-2.56-.488-3.535-1.465l-6.465-6.464-6.465 6.464c-1.951 1.953-5.119 1.953-7.07 0-1.953-1.952-1.953-5.118 0-7.07l10-10c1.951-1.953 5.119-1.953 7.07 0l10 10c1.953 1.952 1.953 5.118 0 7.07-.975.977-2.255 1.465-3.535 1.465z" fill="#ff9d33"/></g><g><path d="m422.846 50.5c-1.279 0-2.56-.488-3.535-1.465l-6.465-6.464-6.465 6.464c-1.951 1.953-5.119 1.953-7.07 0-1.953-1.952-1.953-5.118 0-7.07l10-10c1.951-1.953 5.119-1.953 7.07 0l10 10c1.953 1.952 1.953 5.118 0 7.07-.976.977-2.256 1.465-3.535 1.465z" fill="#ff9d33"/></g><g><path d="m432.846 421.569c-1.279 0-2.56-.488-3.535-1.465l-6.465-6.464-6.465 6.464c-1.951 1.953-5.119 1.953-7.07 0-1.953-1.952-1.953-5.118 0-7.07l10-10c1.951-1.953 5.119-1.953 7.07 0l10 10c1.953 1.952 1.953 5.118 0 7.07-.976.977-2.256 1.465-3.535 1.465z" fill="#6c6cff"/></g></g></g></g></svg>